<svg viewBox="0 -1 500 125">
<style type="text/css">
	.co-color{fill:var(--co-color);}
	.lab-color{fill:var(--lab-color);}
</style>
<path class="st0" d="M90.2,51.5h21c0,0-11.5-42.1-47.8-42.1S9,37.1,9,58.2s10.5,53.5,47.8,53.5s55.4-32.5,55.4-44h-21
	c0,0-5.7,24.9-34.4,24.9S28.1,65.8,28.1,58.2s7.6-28.7,34.4-28.7S90.2,51.5,90.2,51.5z"/>
<path class="st0" d="M174.2,11.3c-36.8,0-55.3,30.7-55.3,49.1s9.2,52.2,43,52.2c33.8,0,58.3-21.5,58.3-49.1
	C220.2,35.9,204.9,11.3,174.2,11.3z M164.8,93.5c-21,0-26.8-21-26.8-32.5s11.5-30.6,34.4-30.6c19.1,0,28.7,15.3,28.7,32.5
	S185.8,93.5,164.8,93.5z"/>
<path class="st1" d="M239.4,15.2h18.2c0,0-2.6,44.2-2.6,54.7S269,95,280,95s19.1-5.3,19.1-5.3l9.3,15.8c0,0-8.8,8.4-32,7.2
	S236,88.8,236,69.9S239.4,15.2,239.4,15.2z"/>
<path class="st1" d="M354.3,18.3c-27.2,0-51.1,18.9-51.1,46.4s17.7,49,42.3,49c24.6,0,30.8-8.8,30.8-8.8l0.1,9.2h18.2
	c0,0,0.9-40.9,1.6-55.8C396.8,43.3,381.6,18.3,354.3,18.3z M345.2,95.4c-19.5,0-24.8-19.5-24.8-30.1c0-10.6,10.6-28.4,31.9-28.4
	c17.7,0,26.6,14.2,26.6,30.1C378.9,82.9,364.7,95.4,345.2,95.4z"/>
<polygon class="st0" points="327.2,75.7 336.9,88 374.1,58.3 365.1,47.2 "/>
<path class="st1" d="M452,19.5c-16,0-31,10-31,10l0.5-15.3c0-5-6.5-8.6-13.4-4.1s-19.9,14.7-19.9,14.7l8.6,12l7-3.4
	c0,0-1.7,27.1-1.7,42.9s16.8,37.8,37.8,37.8c21,0,51.1-13.1,51.1-48S468,19.5,452,19.5z M442.2,95.4c-19.5,0-24.8-19.5-24.8-30.1
	c0-10.6,10.6-28.4,31.9-28.4c17.7,0,26.6,14.2,26.6,30.1C475.9,82.9,461.8,95.4,442.2,95.4z"/>
</svg>
